<?xml version="1.0" encoding="UTF-8"?>
<svg xmlns="http://www.w3.org/2000/svg" viewBox="0 0 900 148" width="900" height="148" role="img" aria-labelledby="ftTitle ftDesc">
  <title id="ftTitle">Credits Scene</title>
  <desc id="ftDesc">Cena final estilo jogo com credits, botao continue e horizonte neon.</desc>
  <rect width="900" height="148" fill="#0d1117"/>
  <rect x="0" y="0" width="900" height="3" fill="#ff79c6" opacity="0.35"/>
  <rect x="0" y="94" width="900" height="54" fill="#1a1f3a"/>
  <g fill="#282a36">
    <rect x="0" y="82" width="50" height="12"/><rect x="50" y="76" width="50" height="18"/><rect x="100" y="70" width="50" height="24"/>
    <rect x="150" y="78" width="50" height="16"/><rect x="200" y="74" width="50" height="20"/><rect x="250" y="68" width="50" height="26"/>
    <rect x="300" y="76" width="50" height="18"/><rect x="350" y="72" width="50" height="22"/><rect x="400" y="78" width="50" height="16"/>
    <rect x="450" y="70" width="50" height="24"/><rect x="500" y="76" width="50" height="18"/><rect x="550" y="68" width="50" height="26"/>
    <rect x="600" y="74" width="50" height="20"/><rect x="650" y="78" width="50" height="16"/><rect x="700" y="70" width="50" height="24"/>
    <rect x="750" y="76" width="50" height="18"/><rect x="800" y="72" width="50" height="22"/><rect x="850" y="78" width="50" height="16"/>
  </g>
  <text x="450" y="44" text-anchor="middle" font-family="ui-monospace,monospace" font-size="14" fill="#e6edf3">THE STORY CONTINUES...</text>
  <text x="450" y="62" text-anchor="middle" font-family="ui-monospace,monospace" font-size="10" fill="#6272a4">Matheus Cardoso :: Tech Architect</text>
  <rect x="360" y="108" width="180" height="24" fill="#161b22" stroke="#8be9fd" stroke-width="2"/>
  <text x="450" y="124" text-anchor="middle" font-family="ui-monospace,monospace" font-size="10" fill="#8be9fd">PRESS START TO CONNECT</text>
</svg>
